<svg width="17" height="17" viewBox="0 0 17 17" fill="none" xmlns="http://www.w3.org/2000/svg">
<path fill-rule="evenodd" clip-rule="evenodd" d="M1 8.50017C1.00026 4.92214 3.52797 1.84256 7.03729 1.14475C10.5466 0.44695 14.0602 2.32527 15.4292 5.63103C16.7983 8.93678 15.6415 12.7493 12.6664 14.7369C9.69125 16.7246 5.72634 16.3339 3.19642 13.8037C1.78994 12.3971 0.999856 10.4893 1 8.50017Z" stroke="#939393" stroke-width="1.5" stroke-linecap="round" stroke-linejoin="round"/>
<path d="M5.6875 7.74999C5.27329 7.74999 4.9375 8.08578 4.9375 8.49999C4.9375 8.9142 5.27329 9.24999 5.6875 9.24999V7.74999ZM8.49999 9.24999C8.9142 9.24999 9.24999 8.9142 9.24999 8.49999C9.24999 8.08578 8.9142 7.74999 8.49999 7.74999V9.24999ZM8.49999 7.74999C8.08578 7.74999 7.74999 8.08578 7.74999 8.49999C7.74999 8.9142 8.08578 9.24999 8.49999 9.24999V7.74999ZM11.3125 9.24999C11.7267 9.24999 12.0625 8.9142 12.0625 8.49999C12.0625 8.08578 11.7267 7.74999 11.3125 7.74999V9.24999ZM9.24999 8.49999C9.24999 8.08578 8.9142 7.74999 8.49999 7.74999C8.08578 7.74999 7.74999 8.08578 7.74999 8.49999H9.24999ZM7.74999 11.3125C7.74999 11.7267 8.08578 12.0625 8.49999 12.0625C8.9142 12.0625 9.24999 11.7267 9.24999 11.3125H7.74999ZM7.74999 8.49999C7.74999 8.9142 8.08578 9.24999 8.49999 9.24999C8.9142 9.24999 9.24999 8.9142 9.24999 8.49999H7.74999ZM9.24999 5.6875C9.24999 5.27329 8.9142 4.9375 8.49999 4.9375C8.08578 4.9375 7.74999 5.27329 7.74999 5.6875H9.24999ZM5.6875 9.24999H8.49999V7.74999H5.6875V9.24999ZM8.49999 9.24999H11.3125V7.74999H8.49999V9.24999ZM7.74999 8.49999V11.3125H9.24999V8.49999H7.74999ZM9.24999 8.49999V5.6875H7.74999V8.49999H9.24999Z" fill="#939393"/>
</svg>
