<svg width="18" height="13" viewBox="0 0 18 13" fill="none" xmlns="http://www.w3.org/2000/svg">
<path fill-rule="evenodd" clip-rule="evenodd" d="M13.0863 11.8018C14.8639 11.8665 16.3586 10.4805 16.428 8.70306V4.10089C16.3586 2.32348 14.8639 0.937462 13.0863 1.00218H4.3417C2.56412 0.937462 1.06941 2.32348 1 4.10089V8.70306C1.06941 10.4805 2.56412 11.8665 4.3417 11.8018H13.0863Z" stroke="#939393" stroke-width="1.5" stroke-linecap="round" stroke-linejoin="round"/>
<path fill-rule="evenodd" clip-rule="evenodd" d="M8.33466 4.22105L10.7731 5.87802C10.931 5.97026 11.0281 6.13942 11.0281 6.32235C11.0281 6.50527 10.931 6.67444 10.7731 6.76667L8.33466 8.57946C7.87182 8.89342 7.17139 8.62575 7.17139 8.13514V4.66384C7.17139 4.17554 7.87259 3.90709 8.33466 4.22105Z" stroke="#939393" stroke-width="1.5" stroke-linecap="round" stroke-linejoin="round"/>
</svg>
