<svg width="16" height="16" viewBox="0 0 16 16" fill="none" xmlns="http://www.w3.org/2000/svg">
<path d="M15 15H5C2.79086 15 1 13.2091 1 11V1" stroke="#939393" stroke-width="1.5" stroke-linecap="round" stroke-linejoin="round"/>
<path d="M11.1196 3.24661C10.7054 3.24661 10.3696 3.5824 10.3696 3.99661C10.3696 4.41083 10.7054 4.74661 11.1196 4.74661V3.24661ZM15.0006 4.74661C15.4148 4.74661 15.7506 4.41083 15.7506 3.99661C15.7506 3.5824 15.4148 3.24661 15.0006 3.24661V4.74661ZM15.7507 3.99609C15.7507 3.58188 15.4149 3.24609 15.0007 3.24609C14.5865 3.24609 14.2507 3.58188 14.2507 3.99609H15.7507ZM14.2507 7.60309C14.2507 8.01731 14.5865 8.35309 15.0007 8.35309C15.4149 8.35309 15.7507 8.01731 15.7507 7.60309H14.2507ZM15.5772 4.47582C15.8422 4.15742 15.7988 3.68453 15.4804 3.41958C15.162 3.15464 14.6891 3.19797 14.4242 3.51637L15.5772 4.47582ZM11.0007 8.80309L11.5045 9.35868C11.5305 9.33512 11.5548 9.30977 11.5772 9.28282L11.0007 8.80309ZM9.4317 8.86409L8.967 9.45282L8.97254 9.45712L9.4317 8.86409ZM8.3827 8.03609L8.84739 7.44738L8.84361 7.44443L8.3827 8.03609ZM6.7007 8.21909L6.12334 7.7404C6.11594 7.74932 6.10875 7.7584 6.10178 7.76766L6.7007 8.21909ZM6.5727 8.37109L7.10815 8.89626C7.11197 8.89236 7.11574 8.88843 7.11947 8.88445L6.5727 8.37109ZM3.33125 10.6049C3.04121 10.9007 3.04582 11.3755 3.34154 11.6655C3.63726 11.9556 4.11211 11.951 4.40215 11.6553L3.33125 10.6049ZM11.1196 4.74661H15.0006V3.24661H11.1196V4.74661ZM14.2507 3.99609V7.60309H15.7507V3.99609H14.2507ZM14.4242 3.51637L10.4242 8.32337L11.5772 9.28282L15.5772 4.47582L14.4242 3.51637ZM10.4969 8.24751C10.3273 8.40128 10.0719 8.41121 9.89086 8.27107L8.97254 9.45712C9.72874 10.0426 10.7961 10.0011 11.5045 9.35868L10.4969 8.24751ZM9.89638 8.27539L8.84738 7.44739L7.91802 8.6248L8.96702 9.4528L9.89638 8.27539ZM8.84361 7.44443C8.00585 6.79181 6.80115 6.92288 6.12334 7.7404L7.27806 8.69779C7.43846 8.50433 7.72354 8.47332 7.92179 8.62776L8.84361 7.44443ZM6.10178 7.76766C6.07813 7.79903 6.05281 7.8291 6.02592 7.85774L7.11947 8.88445C7.18333 8.81644 7.24347 8.74503 7.29962 8.67053L6.10178 7.76766ZM6.03725 7.84593L3.33125 10.6049L4.40215 11.6553L7.10815 8.89626L6.03725 7.84593Z" fill="#939393"/>
</svg>
