<svg width="17" height="17" viewBox="0 0 17 17" fill="none" xmlns="http://www.w3.org/2000/svg">
<path fill-rule="evenodd" clip-rule="evenodd" d="M16 8.5C16 12.6421 12.6421 16 8.5 16C4.35786 16 1 12.6421 1 8.5C1 4.35786 4.35786 1 8.5 1C10.4891 1 12.3968 1.79018 13.8033 3.1967C15.2098 4.60322 16 6.51088 16 8.5Z" stroke="#939393" stroke-width="1.5" stroke-linecap="round" stroke-linejoin="round"/>
<path d="M8.49963 11.5746C8.08542 11.5746 7.74963 11.9104 7.74963 12.3246C7.74963 12.7388 8.08542 13.0746 8.49963 13.0746V11.5746ZM6.89249 7.42708L7.41505 6.88909C7.38601 6.86088 7.35474 6.83507 7.32153 6.81191L6.89249 7.42708ZM6.35677 6.35565L7.10633 6.38151C7.10663 6.37289 7.10677 6.36427 7.10677 6.35565H6.35677ZM8.49963 5.42243C8.91385 5.42243 9.24963 5.08665 9.24963 4.67243C9.24963 4.25822 8.91385 3.92243 8.49963 3.92243V5.42243ZM8.46917 13.0748C8.88304 13.0918 9.23227 12.77 9.24921 12.3561C9.26614 11.9422 8.94436 11.593 8.5305 11.5761L8.46917 13.0748ZM7.10023 9.87048C7.15567 9.45999 6.86785 9.08228 6.45737 9.02684C6.04688 8.97139 5.66917 9.25921 5.61373 9.6697L7.10023 9.87048ZM9.24993 12.3231C9.24993 11.9089 8.91414 11.5731 8.49993 11.5731C8.08572 11.5731 7.74993 11.9089 7.74993 12.3231H9.24993ZM7.74993 13.8542C7.74993 14.2684 8.08572 14.6042 8.49993 14.6042C8.91414 14.6042 9.24993 14.2684 9.24993 13.8542H7.74993ZM8.45773 3.92269C8.04417 3.946 7.72781 4.30015 7.75112 4.7137C7.77443 5.12726 8.12858 5.44362 8.54214 5.42031L8.45773 3.92269ZM10.1254 5.33262L9.57249 5.83939H9.57249L10.1254 5.33262ZM9.90047 6.90226C9.84132 7.31223 10.1257 7.69252 10.5357 7.75167C10.9457 7.81082 11.326 7.52642 11.3851 7.11645L9.90047 6.90226ZM7.74993 4.6717C7.74993 5.08591 8.08572 5.4217 8.49993 5.4217C8.91414 5.4217 9.24993 5.08591 9.24993 4.6717H7.74993ZM9.24993 3.14062C9.24993 2.72641 8.91414 2.39062 8.49993 2.39062C8.08572 2.39062 7.74993 2.72641 7.74993 3.14062H9.24993ZM8.49963 13.0746C8.94717 13.0746 9.62121 12.9728 10.2117 12.6348C10.8391 12.2756 11.3925 11.6267 11.3925 10.621H9.89249C9.89249 10.9781 9.73181 11.1811 9.46644 11.333C9.16412 11.506 8.76673 11.5746 8.49963 11.5746V13.0746ZM11.3925 10.621C11.3925 10.0032 11.1989 9.5019 10.8496 9.09843C10.5252 8.72376 10.0989 8.47313 9.71437 8.27452C8.88614 7.8467 8.11374 7.56775 7.41505 6.88909L6.36993 7.96506C7.27838 8.84747 8.38098 9.27406 9.02597 9.60722C9.37807 9.7891 9.58791 9.93283 9.71554 10.0802C9.81823 10.1989 9.89249 10.3473 9.89249 10.621H11.3925ZM7.32153 6.81191C7.18145 6.71422 7.10044 6.55219 7.10633 6.38151L5.60722 6.32978C5.58379 7.00886 5.90613 7.65354 6.46345 8.04224L7.32153 6.81191ZM7.10677 6.35565C7.10677 6.06743 7.16967 5.90443 7.22789 5.81086C7.28597 5.71751 7.36998 5.6441 7.49166 5.58415C7.76694 5.44853 8.14404 5.42243 8.49963 5.42243V3.92243C8.14059 3.92243 7.44625 3.93437 6.82876 4.23857C6.50406 4.39854 6.18635 4.64548 5.95431 5.01841C5.72241 5.3911 5.60677 5.84029 5.60677 6.35565H7.10677ZM8.5305 11.5761C8.1072 11.5588 7.71079 11.3639 7.43857 11.0392L6.28921 12.0031C6.83268 12.6512 7.62408 13.0402 8.46917 13.0748L8.5305 11.5761ZM7.43857 11.0392C7.16635 10.7146 7.04352 10.2903 7.10023 9.87048L5.61373 9.6697C5.50051 10.5079 5.74574 11.355 6.28921 12.0031L7.43857 11.0392ZM7.74993 12.3231V13.8542H9.24993V12.3231H7.74993ZM8.54214 5.42031C8.93106 5.39839 9.30928 5.55222 9.57249 5.83939L10.6783 4.82585C10.111 4.20698 9.2959 3.87545 8.45773 3.92269L8.54214 5.42031ZM9.57249 5.83939C9.83571 6.12655 9.9561 6.51671 9.90047 6.90226L11.3851 7.11645C11.505 6.28555 11.2455 5.44472 10.6783 4.82585L9.57249 5.83939ZM9.24993 4.6717V3.14062H7.74993V4.6717H9.24993Z" fill="#939393"/>
</svg>
