<svg width="25" height="18" viewBox="0 0 25 18" fill="none" xmlns="http://www.w3.org/2000/svg">
<rect width="25" height="6.50685" fill="#0099B5"/>
<rect y="6.50781" width="25" height="5.47945" fill="white"/>
<rect y="6.16406" width="25" height="0.342466" fill="#EF3340"/>
<rect y="11.9844" width="25" height="5.82192" fill="#1EB53A"/>
<path d="M7.19208 3.76562L7.26896 4.00226L7.51778 4.00226L7.31648 4.14851L7.39337 4.38515L7.19208 4.2389L6.99078 4.38515L7.06767 4.14851L6.86637 4.00226L7.11519 4.00226L7.19208 3.76562Z" fill="white"/>
<path d="M5.99286 3.76562L6.06974 4.00226L6.31856 4.00226L6.11726 4.14851L6.19415 4.38515L5.99286 4.2389L5.79156 4.38515L5.86845 4.14851L5.66715 4.00226L5.91597 4.00226L5.99286 3.76562Z" fill="white"/>
<path d="M4.79461 3.76562L4.8715 4.00226L5.12032 4.00226L4.91902 4.14851L4.99591 4.38515L4.79461 4.2389L4.59332 4.38515L4.67021 4.14851L4.46891 4.00226L4.71773 4.00226L4.79461 3.76562Z" fill="white"/>
<path d="M8.39032 3.76562L8.46721 4.00226L8.71602 4.00226L8.51473 4.14851L8.59161 4.38515L8.39032 4.2389L8.18902 4.38515L8.26591 4.14851L8.06461 4.00226L8.31343 4.00226L8.39032 3.76562Z" fill="white"/>
<path d="M9.58856 3.76562L9.66545 4.00226L9.91426 4.00226L9.71297 4.14851L9.78986 4.38515L9.58856 4.2389L9.38726 4.38515L9.46415 4.14851L9.26286 4.00226L9.51167 4.00226L9.58856 3.76562Z" fill="white"/>
<path d="M7.19208 2.39844L7.26896 2.63508L7.51778 2.63508L7.31648 2.78133L7.39337 3.01796L7.19208 2.87171L6.99078 3.01796L7.06767 2.78133L6.86637 2.63508L7.11519 2.63508L7.19208 2.39844Z" fill="white"/>
<path d="M5.99286 2.39844L6.06974 2.63508L6.31856 2.63508L6.11726 2.78133L6.19415 3.01796L5.99286 2.87171L5.79156 3.01796L5.86845 2.78133L5.66715 2.63508L5.91597 2.63508L5.99286 2.39844Z" fill="white"/>
<path d="M8.39032 2.39844L8.46721 2.63508L8.71602 2.63508L8.51473 2.78133L8.59161 3.01796L8.39032 2.87171L8.18902 3.01796L8.26591 2.78133L8.06461 2.63508L8.31343 2.63508L8.39032 2.39844Z" fill="white"/>
<path d="M9.58856 2.39844L9.66545 2.63508L9.91426 2.63508L9.71297 2.78133L9.78986 3.01796L9.58856 2.87171L9.38726 3.01796L9.46415 2.78133L9.26286 2.63508L9.51167 2.63508L9.58856 2.39844Z" fill="white"/>
<path d="M7.19208 1.02734L7.26896 1.26398L7.51778 1.26398L7.31648 1.41023L7.39337 1.64687L7.19208 1.50062L6.99078 1.64687L7.06767 1.41023L6.86637 1.26398L7.11519 1.26398L7.19208 1.02734Z" fill="white"/>
<path d="M8.39032 1.02734L8.46721 1.26398L8.71602 1.26398L8.51473 1.41023L8.59161 1.64687L8.39032 1.50062L8.18902 1.64687L8.26591 1.41023L8.06461 1.26398L8.31343 1.26398L8.39032 1.02734Z" fill="white"/>
<path d="M9.58856 1.02734L9.66545 1.26398L9.91426 1.26398L9.71297 1.41023L9.78986 1.64687L9.58856 1.50062L9.38726 1.64687L9.46415 1.41023L9.26286 1.26398L9.51167 1.26398L9.58856 1.02734Z" fill="white"/>
<path fill-rule="evenodd" clip-rule="evenodd" d="M3.76671 1.0616C2.98513 1.22025 2.39686 1.91127 2.39686 2.73967C2.39686 3.56808 2.98513 4.25909 3.76671 4.41775C3.65606 4.44021 3.54153 4.452 3.42424 4.452C2.47855 4.452 1.71191 3.68537 1.71191 2.73967C1.71191 1.79398 2.47855 1.02734 3.42424 1.02734C3.54153 1.02734 3.65606 1.03914 3.76671 1.0616Z" fill="white"/>
<rect y="11.6445" width="25" height="0.342466" fill="#EF3340"/>
</svg>
