<svg width="253" height="169" viewBox="0 0 253 169" fill="none" xmlns="http://www.w3.org/2000/svg">
<path d="M169.99 68.304L161.206 102H151.27L145.894 79.824L140.326 102H130.39L121.846 68.304H130.63L135.478 92.832L141.478 68.304H150.502L156.262 92.832L161.158 68.304H169.99ZM186.298 102.384C183.674 102.384 181.306 101.824 179.194 100.704C177.114 99.584 175.466 97.984 174.25 95.904C173.066 93.824 172.474 91.392 172.474 88.608C172.474 85.856 173.082 83.44 174.298 81.36C175.514 79.248 177.178 77.632 179.29 76.512C181.402 75.392 183.77 74.832 186.394 74.832C189.018 74.832 191.386 75.392 193.498 76.512C195.61 77.632 197.274 79.248 198.49 81.36C199.706 83.44 200.314 85.856 200.314 88.608C200.314 91.36 199.69 93.792 198.442 95.904C197.226 97.984 195.546 99.584 193.402 100.704C191.29 101.824 188.922 102.384 186.298 102.384ZM186.298 95.28C187.866 95.28 189.194 94.704 190.282 93.552C191.402 92.4 191.962 90.752 191.962 88.608C191.962 86.464 191.418 84.816 190.33 83.664C189.274 82.512 187.962 81.936 186.394 81.936C184.794 81.936 183.466 82.512 182.41 83.664C181.354 84.784 180.826 86.432 180.826 88.608C180.826 90.752 181.338 92.4 182.362 93.552C183.418 94.704 184.73 95.28 186.298 95.28ZM212.876 79.68C213.836 78.208 215.036 77.056 216.476 76.224C217.916 75.36 219.516 74.928 221.276 74.928V83.616H219.02C216.972 83.616 215.436 84.064 214.412 84.96C213.388 85.824 212.876 87.36 212.876 89.568V102H204.668V75.216H212.876V79.68ZM241.568 102L233.408 90.768V102H225.2V66.48H233.408V86.112L241.52 75.216H251.648L240.512 88.656L251.744 102H241.568Z" fill="#0077FF"/>
<path d="M74.2347 50.7783C89.296 38.798 111.678 47.6146 114.523 66.6482L118.363 92.3436C121.208 111.377 102.381 126.353 84.4753 119.299L60.3023 109.777C42.3964 102.724 38.8407 78.9319 53.902 66.9516L74.2347 50.7783Z" fill="#0077FF"/>
<path d="M83.5965 96.048H71.0205L69.0045 102H60.4125L72.6045 68.304H82.1085L94.3005 102H85.6125L83.5965 96.048ZM81.4845 89.712L77.3085 77.376L73.1805 89.712H81.4845ZM106.219 68.304V102H98.0112V68.304H106.219Z" fill="white"/>
</svg>
